<svg width="802" height="567" viewBox="0 0 802 567" fill="none" xmlns="http://www.w3.org/2000/svg">
<g id="Aggregated Report">
<rect x="0.5" y="0.5" width="801" height="566" rx="12.5" fill="black"/>
<rect x="0.5" y="0.5" width="801" height="566" rx="12.5" stroke="#242424"/>
<rect id="Rectangle 6" x="3.5" y="3.5" width="320" height="560" rx="12.5" fill="#101010" stroke="#242424"/>
<text id="To apply to our firm, navigate to Ufunded.com/apply" fill="#9E9E9E" xml:space="preserve" style="white-space: pre" font-family="Geist" font-size="12" letter-spacing="0px"><tspan x="23" y="542.26">To apply to our firm, navigate to Ufunded.com/apply</tspan></text>
<g id="Frame 8">
<text id="Scan QR code" fill="white" xml:space="preserve" style="white-space: pre" font-family="Geist" font-size="16" font-weight="500" letter-spacing="0px"><tspan x="509.305" y="119.18">Scan QR code</tspan></text>
<text id="To protect the results of our traders, the legitimacy of this document can be verified by scanning the QR code dedicated to this payout." fill="white" xml:space="preserve" style="white-space: pre" font-family="Geist" font-size="12" letter-spacing="0px"><tspan x="404.783" y="146.26">To protect the results of our traders, the legitimacy of this </tspan><tspan x="423.123" y="162.26">document can be verified by scanning the QR code </tspan><tspan x="494.602" y="178.26">dedicated to this payout.</tspan></text>
<g id="Frame 10">
<rect id="qr_bg" x="515" y="202" width="94" height="94" rx="6" fill="#101010"/>
<rect id="qr-slot" opacity="0.6" x="522" y="209" width="80" height="80" fill="white"/>
</g>
<text id="or enter the code manually on Ufunded.com/verify" fill="white" xml:space="preserve" style="white-space: pre" font-family="Geist" font-size="12" letter-spacing="0px"><tspan x="424.082" y="332.26">or enter the code manually on Ufunded.com/verify</tspan></text>
</g>
<g id="Frame 9">
<g id="Frame 13">
<rect x="397" y="364" width="329" height="33" rx="16.5" fill="#191919"/>
<text id="{REPORT_ID}" fill="white" xml:space="preserve" style="white-space: pre" font-family="Geist" font-size="12" letter-spacing="0px"><tspan x="409.297" y="384.76">{REPORT_ID}</tspan></text>
</g>
</g>
<text id="This document automatically issued upon payout by Ufunded.com and may be externally shared by the recipient it desired. All definitions in this report are according to the user agreement." fill="white" xml:space="preserve" style="white-space: pre" font-family="Geist" font-size="12" letter-spacing="0px"><tspan x="356.574" y="498.26">This document automatically issued upon payout by Ufunded.com and may </tspan><tspan x="358.748" y="514.26">be externally shared by the recipient it desired. All definitions in this report </tspan><tspan x="460.479" y="530.26">are according to the user agreement.</tspan></text>
<text id="{REPORT_TITLE}" fill="white" xml:space="preserve" style="white-space: pre" font-family="Geist" font-size="16" font-weight="500" letter-spacing="0px"><tspan x="23" y="80.18">{REPORT_TITLE}</tspan></text>
<text id="Generated on {REPORT_DATE}" fill="#9E9E9E" xml:space="preserve" style="white-space: pre" font-family="Geist" font-size="12" letter-spacing="0px"><tspan x="23" y="104.26">Generated on {REPORT_DATE}</tspan></text>
<text id="Segregated Report" fill="#9E9E9E" xml:space="preserve" style="white-space: pre" font-family="Geist" font-size="12" letter-spacing="0px"><tspan x="23" y="122.26">Segregated Report</tspan></text>
<text id="Our trader" fill="#9E9E9E" xml:space="preserve" style="white-space: pre" font-family="Geist" font-size="12" letter-spacing="0px"><tspan x="23" y="178.26">Our trader</tspan></text>
<g id=": {TRADER_NAME}">
<text fill="white" xml:space="preserve" style="white-space: pre" font-family="Geist" font-size="12" letter-spacing="0px"><tspan x="182.562" y="178.26">{TRADER_NAME}</tspan></text>
<text fill="#9E9E9E" xml:space="preserve" style="white-space: pre" font-family="Geist" font-size="12" letter-spacing="0px"><tspan x="176" y="178.26">: </tspan></text>
</g>
<text id="Allocation" fill="#9E9E9E" xml:space="preserve" style="white-space: pre" font-family="Geist" font-size="12" letter-spacing="0px"><tspan x="23" y="206.26">Allocation</tspan></text>
<g id=": {ALLOCATION}">
<text fill="white" xml:space="preserve" style="white-space: pre" font-family="Geist" font-size="12" letter-spacing="0px"><tspan x="182.562" y="206.26">{ALLOCATION}</tspan></text>
<text fill="#9E9E9E" xml:space="preserve" style="white-space: pre" font-family="Geist" font-size="12" letter-spacing="0px"><tspan x="176" y="206.26">: </tspan></text>
</g>
<text id="Total payouts" fill="#9E9E9E" xml:space="preserve" style="white-space: pre" font-family="Geist" font-size="12" letter-spacing="0px"><tspan x="23" y="234.26">Total payouts</tspan></text>
<g id=": {TOTAL_PAYOUTS}">
<text fill="white" xml:space="preserve" style="white-space: pre" font-family="Geist" font-size="12" letter-spacing="0px"><tspan x="179.562" y="234.26"> {TOTAL_PAYOUTS}</tspan></text>
<text fill="#9E9E9E" xml:space="preserve" style="white-space: pre" font-family="Geist" font-size="12" letter-spacing="0px"><tspan x="176" y="234.26">:</tspan></text>
</g>
<text id="Most recent payout" fill="#9E9E9E" xml:space="preserve" style="white-space: pre" font-family="Geist" font-size="12" letter-spacing="0px"><tspan x="23" y="262.26">Most recent payout</tspan></text>
<g id=": {LATEST_PAYOUT}">
<text fill="white" xml:space="preserve" style="white-space: pre" font-family="Geist" font-size="12" letter-spacing="0px"><tspan x="179.562" y="262.26"> {LATEST_PAYOUT}</tspan></text>
<text fill="#9E9E9E" xml:space="preserve" style="white-space: pre" font-family="Geist" font-size="12" letter-spacing="0px"><tspan x="176" y="262.26">:</tspan></text>
</g>
<line id="Line 1" x1="323.002" y1="152.5" x2="4.00157" y2="153.5" stroke="#242424"/>
<g id="ufunded 1" clip-path="url(#clip0_4789_464)">
<path id="Vector" d="M23.8159 25.5928H23.3V51.9928H23.8159V25.5928Z" fill="#DDF3FE"/>
<path id="Vector_2" d="M26.4052 25.5928H25.8893V51.9928H26.4052V25.5928Z" fill="#DDF3FE"/>
<path id="Vector_3" d="M28.9948 25.5928H28.4788V29.2529H27.8396V43.8353H28.4788V51.9895H28.9948V43.8353H29.6502V29.2529H28.9948V25.5928Z" fill="#DDF3FE"/>
<path id="Vector_4" d="M31.584 25.5928H31.0648V29.2529H30.4191V47.132H31.0648V51.9895H31.584V47.132H32.2297V29.2529H31.584V25.5928Z" fill="#DDF3FE"/>
<path id="Vector_5" d="M34.1703 25.5928H33.6543V43.5757H32.9989V48.7285H33.6543V51.9895H34.1703V48.7285H34.8095V43.5757H34.1703V25.5928Z" fill="#DDF3FE"/>
<path id="Vector_6" d="M36.7596 25.5928H36.2404V44.111H35.5817V49.1016H36.2404V51.9895H36.7596V49.1016H37.3891V44.111H36.7596V25.5928Z" fill="#DDF3FE"/>
<path id="Vector_7" d="M39.3457 25.5928H38.8298V43.5757H38.1613V48.7285H38.8298V51.9895H39.3457V48.7285H39.9687V43.5757H39.3457V25.5928Z" fill="#DDF3FE"/>
<path id="Vector_8" d="M41.9351 25.5928H41.4191V29.2529H40.741V47.132H41.4191V51.9895H41.9351V47.132H42.5516V29.2529H41.9351V25.5928Z" fill="#DDF3FE"/>
<path id="Vector_9" d="M44.5246 25.5928H44.0054V29.2529H43.3208V43.8353H44.0054V51.9895H44.5246V43.8353H45.1314V29.2529H44.5246V25.5928Z" fill="#DDF3FE"/>
<path id="Vector_10" d="M47.1107 25.5928H46.5947V51.9928H47.1107V25.5928Z" fill="#DDF3FE"/>
<path id="Vector_11" d="M49.7 25.5928H49.1807V51.9928H49.7V25.5928Z" fill="#DDF3FE"/>
</g>
<g id="Group 22">
<rect id="qr_bg_2" x="547" y="64" width="30" height="30" rx="6" fill="#101010"/>
<g id="Frame 12">
<g id="Vector_12">
<path d="M558.877 71C560.306 71 561.465 72.1586 561.465 73.5879V75.8771C561.465 77.3064 560.306 78.465 558.877 78.465H556.588C555.159 78.465 554 77.3064 554 75.8771V73.5879C554 72.1586 555.159 71 556.588 71H558.877ZM556.737 72.2442C555.94 72.2442 555.294 72.8903 555.294 73.6874V75.7278C555.294 76.5249 555.94 77.1711 556.737 77.1711H558.728C559.525 77.1711 560.171 76.5249 560.171 75.7278V73.6874C560.171 72.8903 559.525 72.2442 558.728 72.2442H556.737Z" fill="white"/>
<path d="M556.563 74.1851C556.563 73.8003 556.875 73.4883 557.26 73.4883H558.205C558.59 73.4883 558.902 73.8003 558.902 74.1851V75.1306C558.902 75.5154 558.59 75.8274 558.205 75.8274H557.26C556.875 75.8274 556.563 75.5154 556.563 75.1306V74.1851Z" fill="white"/>
<path d="M558.877 79.5101C560.306 79.5101 561.465 80.6687 561.465 82.098V84.3872C561.465 85.8165 560.306 86.9751 558.877 86.9751H556.588C555.159 86.9751 554 85.8165 554 84.3872V82.098C554 80.6687 555.159 79.5101 556.588 79.5101H558.877ZM556.737 80.7543C555.94 80.7543 555.294 81.4004 555.294 82.1975V84.2379C555.294 85.035 555.94 85.6812 556.737 85.6812H558.728C559.525 85.6812 560.171 85.035 560.171 84.2379V82.1975C560.171 81.4004 559.525 80.7543 558.728 80.7543H556.737Z" fill="white"/>
<path d="M556.563 82.6952C556.563 82.3104 556.875 81.9984 557.26 81.9984H558.205C558.59 81.9984 558.902 82.3104 558.902 82.6952V83.6407C558.902 84.0255 558.59 84.3375 558.205 84.3375H557.26C556.875 84.3375 556.563 84.0255 556.563 83.6407V82.6952Z" fill="white"/>
<path d="M567.412 71C568.841 71 570 72.1586 570 73.5879V75.8771C570 77.3064 568.841 78.465 567.412 78.465H565.123C563.694 78.465 562.535 77.3064 562.535 75.8771V73.5879C562.535 72.1586 563.694 71 565.123 71H567.412ZM565.272 72.2442C564.475 72.2442 563.829 72.8903 563.829 73.6874V75.7278C563.829 76.5249 564.475 77.1711 565.272 77.1711H567.263C568.06 77.1711 568.706 76.5249 568.706 75.7278V73.6874C568.706 72.8903 568.06 72.2442 567.263 72.2442H565.272Z" fill="white"/>
<path d="M565.098 74.1851C565.098 73.8003 565.41 73.4883 565.795 73.4883H566.74C567.125 73.4883 567.437 73.8003 567.437 74.1851V75.1306C567.437 75.5154 567.125 75.8274 566.74 75.8274H565.795C565.41 75.8274 565.098 75.5154 565.098 75.1306V74.1851Z" fill="white"/>
<path d="M562.535 80.2068C562.535 79.822 562.847 79.5101 563.232 79.5101H564.177C564.562 79.5101 564.874 79.822 564.874 80.2068V81.1524C564.874 81.5372 564.562 81.8491 564.177 81.8491H563.232C562.847 81.8491 562.535 81.5372 562.535 81.1524V80.2068Z" fill="white"/>
<path d="M565.123 82.7449C565.123 82.3601 565.435 82.0482 565.82 82.0482H566.765C567.15 82.0482 567.462 82.3601 567.462 82.7449V83.6905C567.462 84.0753 567.15 84.3872 566.765 84.3872H565.82C565.435 84.3872 565.123 84.0753 565.123 83.6905V82.7449Z" fill="white"/>
<path d="M562.535 85.3328C562.535 84.948 562.847 84.6361 563.232 84.6361H564.177C564.562 84.6361 564.874 84.948 564.874 85.3328V86.2784C564.874 86.6632 564.562 86.9751 564.177 86.9751H563.232C562.847 86.9751 562.535 86.6632 562.535 86.2784V85.3328Z" fill="white"/>
<path d="M567.661 80.2068C567.661 79.822 567.973 79.5101 568.358 79.5101H569.303C569.688 79.5101 570 79.822 570 80.2068V81.1524C570 81.5372 569.688 81.8491 569.303 81.8491H568.358C567.973 81.8491 567.661 81.5372 567.661 81.1524V80.2068Z" fill="white"/>
<path d="M567.661 85.3328C567.661 84.948 567.973 84.6361 568.358 84.6361H569.303C569.688 84.6361 570 84.948 570 85.3328V86.2784C570 86.6632 569.688 86.9751 569.303 86.9751H568.358C567.973 86.9751 567.661 86.6632 567.661 86.2784V85.3328Z" fill="white"/>
</g>
</g>
</g>
<text id="Largest payout" fill="#9E9E9E" xml:space="preserve" style="white-space: pre" font-family="Geist" font-size="12" letter-spacing="0px"><tspan x="23" y="290.26">Largest payout</tspan></text>
<g id=": {LARGEST_PAYOUT}">
<text fill="white" xml:space="preserve" style="white-space: pre" font-family="Geist" font-size="12" letter-spacing="0px"><tspan x="179.562" y="290.26"> {LARGEST_PAYOUT}</tspan></text>
<text fill="#9E9E9E" xml:space="preserve" style="white-space: pre" font-family="Geist" font-size="12" letter-spacing="0px"><tspan x="176" y="290.26">:</tspan></text>
</g>
</g>
<defs>
<clipPath id="clip0_4789_464">
<rect width="27" height="27" fill="white" transform="translate(23 25)"/>
</clipPath>
</defs>
</svg>
